<?xml version="1.0" encoding="UTF-8"?>
<svg id="Camada_1" data-name="Camada 1" xmlns="http://www.w3.org/2000/svg" viewBox="110 590 1300 300">
  <defs>
    <style>
      .cls-1 { fill: #85e3cc; }
      .cls-2 { fill: #fafafa; }
      .cls-3 { fill: #00cca3; }
    </style>
  </defs>
  <g>
    <path class="cls-1" d="M250.89,652.1l.31-62.08c0-.5-.6-.75-.95-.4l-58.46,57.71c-2.29,2.26-3.19,5.57-2.37,8.68l60.55,231.26.93-235.18Z"/>
    <path class="cls-3" d="M379.84,708.18l-56.36,35.58c-1.63,1.03-2.88,2.55-3.57,4.35l-53.94,141.16c-.03.07.06.12.11.07l116.78-117.09c1.77-1.77,2.71-4.2,2.6-6.7l-2.43-55.7c-.07-1.6-1.84-2.53-3.2-1.67Z"/>
    <path class="cls-3" d="M249.6,649.75l.55-59.38c.01-1.51,1.84-2.26,2.91-1.2l56.24,55.8c2.28,2.27,3.19,5.58,2.36,8.69l-61.77,233.88-.29-237.79Z"/>
    <path class="cls-1" d="M119.33,707.76l56.51,35.67c1.62,1.02,2.86,2.54,3.54,4.33l53.94,141.18c.03.07-.06.12-.11.07l-116.79-117.1c-1.76-1.76-2.7-4.18-2.59-6.67l2.44-55.87c.07-1.53,1.76-2.42,3.06-1.6Z"/>
  </g>
  <g>
    <path class="cls-2" d="M484.99,819.12h-2.03l-6.09-174.46,2.54.51c18.93,3.55,37.95,9.72,57.06,18.51,16.74,7.78,30.09,16.65,40.07,26.63,12.51,12.51,19.1,26.37,19.78,41.59,1.01,19.95-4.82,36.86-17.5,50.72-13.19,14.2-32.8,24.6-58.83,31.19-12.85,3.04-24.51,4.82-34.99,5.33ZM521.5,705.77l.25,60.35c2.87-.67,5.75-1.48,8.62-2.41,2.87-.93,6.3-2.32,10.27-4.18,3.97-1.86,7.23-4.18,9.76-6.97,2.54-2.79,3.89-5.79,4.06-9,.17-3.38-.3-6.68-1.39-9.89-1.1-3.21-2.66-6.09-4.69-8.62-2.03-2.54-4.18-4.86-6.47-6.97-2.28-2.11-4.82-3.97-7.61-5.58-2.79-1.6-5.16-2.92-7.1-3.93-1.95-1.01-3.85-1.94-5.71-2.79Z"/>
    <path class="cls-2" d="M711.94,808.47c0,3.21-.09,5.24-.25,6.09-.17.85-.59,1.44-1.27,1.77h-.51c-7.61,2.87-17.24,4.31-28.91,4.31-2.88,0-5.75-.17-8.62-.51-18.6-1.18-33.98-6-46.15-14.45-16.74-11.66-25.19-28.65-25.36-50.97v-.25c.84-19.1,5.92-33.85,15.21-44.25,9.29-10.4,22.06-15.6,38.29-15.6h4.56c18.42.34,31.78,5.33,40.07,14.96,9.13,10.48,12.42,26.8,9.89,48.94,0,.51-.17,1.01-.51,1.52-.34.51-.93.93-1.77,1.27-.85.34-3.59.63-8.24.89-4.65.25-11.71.21-21.17-.13-8.11-.17-16.91-.51-26.37-1.01-1.36,6.43,2.11,11.5,10.4,15.21,3.72,1.69,9.76,2.5,18.13,2.41,8.37-.08,14.66-.38,18.89-.89,4.22-.51,7.61-1.01,10.14-1.52l2.28-.25.25,2.28c.34,7.1.59,13.1.76,18,.17,5.24.25,9.3.25,12.17ZM656.15,732.91c-1.18,1.52-1.69,3.47-1.52,5.83l18-1.77c-.17-1.86-.76-3.3-1.78-4.31-1.35-1.69-3.38-2.62-6.08-2.79h-1.78c-3.21.17-5.5,1.18-6.85,3.04Z"/>
    <path class="cls-2" d="M827.31,816.08v2.03l-39.56,1.27v-2.03c-.17-11.16-1.01-23.33-2.54-36.52-3.04-24.34-7.27-38.12-12.68-41.33-1.36-.67-2.71-.67-4.06,0-2.88,1.86-4.31,9.72-4.31,23.58-.17,8.28.42,20.79,1.77,37.53.51,5.41.76,9.05.76,10.9.17,3.72-.34,5.83-1.52,6.34l-.25.25-40.32.51,1.27-120.2h28.91l6.09,17.5c4.22-8.96,9.72-15.04,16.48-18.26,6.42-3.21,13.44-3.46,21.05-.76,12,4.4,20.45,25.78,25.36,64.16,2.37,18.6,3.55,36.94,3.55,55.03Z"/>
    <path class="cls-2" d="M938.38,770.94l-25.1,48.43-31.19-37.02,2.28,35.5-44.38.25-1.01-180.8,46.15-.51-1.78,64.92,40.57-24.34,10.4,47.42-50.72,16.23,54.77,29.92Z"/>
    <path class="cls-2" d="M952.83,694.87l38.29,2.03,2.54,119.44-48.69,2.28,7.86-123.75ZM978.44,640.86c6.76,1.52,11.88,4.99,15.34,10.4,3.46,5.41,4.77,10.99,3.93,16.74-.85,4.23-2.92,7.78-6.21,10.65-3.3,2.88-7.9,4.31-13.82,4.31h-3.55c-7.27-1.01-12.51-3.63-15.72-7.86-3.21-4.22-4.56-8.79-4.06-13.69.67-5.75,3.21-10.73,7.61-14.96,4.39-4.22,9.8-6.17,16.23-5.83l.25.25Z"/>
    <path class="cls-3" d="M1012.93,694.87l38.29,2.03,2.54,119.44-48.69,2.28,7.86-123.75ZM1038.54,640.86c6.76,1.52,11.88,4.99,15.34,10.4,3.46,5.41,4.77,10.99,3.93,16.74-.85,4.23-2.92,7.78-6.21,10.65-3.3,2.88-7.9,4.31-13.82,4.31h-3.55c-7.27-1.01-12.51-3.63-15.72-7.86-3.21-4.22-4.56-8.79-4.06-13.69.67-5.75,3.21-10.73,7.61-14.96,4.39-4.22,9.8-6.17,16.23-5.83l.25.25Z"/>
    <path class="cls-3" d="M1161.78,761.31c10.99,7.95,15.63,17.5,13.95,28.65-2.03,9.3-7.19,16.48-15.47,21.55-8.62,5.24-19.87,7.86-33.73,7.86-8.96,0-17.67-1.01-26.12-3.04-6.93-1.86-12.93-4.01-18-6.47-5.07-2.45-8.79-4.69-11.16-6.72-2.37-2.03-4.18-4.18-5.45-6.47-1.27-2.28-1.95-3.89-2.03-4.82-.09-.93-.13-1.65-.13-2.16v-1.52l1.52-.51c5.07-2.37,10.14-4.65,15.21-6.85,4.56-1.86,8.2-3.21,10.9-4.06,4.73-1.69,7.52-1.69,8.37,0,1.18,2.54,4.6,5.2,10.27,7.99,5.66,2.79,10.44,3.85,14.33,3.17,2.37-.34,3.68-1.52,3.93-3.55s-.97-3.84-3.68-5.45c-2.71-1.6-7.44-3.68-14.2-6.21-5.58-2.03-9.98-3.72-13.19-5.07-3.21-1.35-7.31-3.55-12.3-6.59-4.99-3.04-9.26-6.42-12.81-10.14-7.95-8.11-9.89-16.82-5.83-26.12,3.72-8.45,11.37-15.42,22.95-20.92,11.58-5.49,23.62-7.99,36.13-7.48,19.27.85,32.88,8.03,40.83,21.55,4.06,6.59,6.17,13.19,6.34,19.78v2.79l-48.18-.25.25-2.79c.67-4.9.25-8.11-1.27-9.64-1.01-1.35-3.13-1.94-6.34-1.77-4.06,0-6.85.85-8.37,2.54-.85,1.01-1.27,2.45-1.27,4.31.17,1.01.84,2.07,2.03,3.17,1.18,1.1,3.08,2.28,5.71,3.55,2.62,1.27,4.86,2.28,6.72,3.04,1.86.76,4.65,1.82,8.37,3.17,15.21,5.92,25.78,11.07,31.7,15.47Z"/>
    <path class="cls-3" d="M1278.17,696.9c3.72,1.86,6.93,4.82,9.64,8.88,2.7,4.06,4.82,8.41,6.34,13.06,1.52,4.65,2.75,10.44,3.68,17.37.93,6.93,1.52,13.02,1.78,18.26.25,5.24.29,11.66.13,19.27-.17,7.61-.34,13.27-.51,16.99-.17,3.72-.51,8.54-1.01,14.45-.34,6.09-.51,9.72-.51,10.9l.25,2.28-40.83-2.28v-2.03c.17-6.42.21-14.16.13-23.2-.09-9.04-1.01-18.13-2.79-27.26-1.77-9.13-4.35-14.71-7.73-16.74-1.86-1.18-4.14-1.1-6.85.25-3.21,1.52-5.5,9.81-6.85,24.85-.68,8.62-1.01,20.54-1.01,35.75,0,4.56-.09,7.1-.25,7.61l-.25,1.27-45.14,3.55,2.79-180.04,45.39-1.27.51-.51,1.52.51c1.01.51,1.43,2.12,1.27,4.82-.17,1.52-.34,3.72-.51,6.59-.51,5.92-1.1,13.19-1.78,21.81-1.52,16.91-2.79,30.35-3.8,40.32,19.44-15.89,34.91-21.05,46.41-15.47Z"/>
    <path class="cls-3" d="M1318.48,694.87l38.29,2.03,2.54,119.44-48.69,2.28,7.86-123.75ZM1344.1,640.86c6.76,1.52,11.88,4.99,15.34,10.4,3.46,5.41,4.77,10.99,3.93,16.74-.85,4.23-2.92,7.78-6.21,10.65-3.3,2.88-7.9,4.31-13.82,4.31h-3.55c-7.27-1.01-12.51-3.63-15.72-7.86-3.21-4.22-4.56-8.79-4.06-13.69.67-5.75,3.21-10.73,7.61-14.96,4.39-4.22,9.8-6.17,16.23-5.83l.25.25Z"/>
  </g>
</svg>
