<?xml version="1.0" encoding="UTF-8"?>
<svg id="Camada_1" data-name="Camada 1" xmlns="http://www.w3.org/2000/svg" viewBox="150 250 1150 1000">
  <defs>
    <style>
      .cls-1 { fill: #85e3cc; }
      .cls-2 { fill: #01181a; }
      .cls-3 { fill: #00cca3; }
    </style>
  </defs>
  <g>
    <path class="cls-1" d="M755.8,424.86l.6-121.72c0-.98-1.18-1.48-1.87-.79l-114.63,113.16c-4.49,4.43-6.26,10.92-4.65,17.02l118.73,453.46,1.82-461.13Z"/>
    <path class="cls-3" d="M1008.65,534.83l-110.51,69.76c-3.19,2.01-5.64,5.01-6.99,8.53l-105.76,276.79c-.05.13.12.24.22.14l228.99-229.58c3.46-3.47,5.31-8.24,5.1-13.13l-4.77-109.23c-.14-3.14-3.61-4.96-6.27-3.28Z"/>
    <path class="cls-3" d="M753.27,420.25l1.08-116.43c.03-2.96,3.61-4.44,5.71-2.35l110.28,109.41c4.48,4.44,6.25,10.94,4.63,17.04l-121.13,458.59-.58-466.26Z"/>
    <path class="cls-1" d="M497.84,534l110.8,69.94c3.17,2,5.61,4.98,6.95,8.48l105.77,276.82c.05.13-.12.24-.22.14l-229.01-229.6c-3.45-3.46-5.29-8.2-5.08-13.08l4.79-109.56c.13-3,3.46-4.75,6-3.14Z"/>
  </g>
  <g>
    <path class="cls-2" d="M217.66,1199.5h-2.43l-7.29-209.12,3.04.61c22.69,4.25,45.49,11.65,68.39,22.19,20.06,9.32,36.07,19.96,48.02,31.91,14.99,15,22.9,31.61,23.71,49.85,1.22,23.91-5.78,44.18-20.97,60.79-15.81,17.02-39.31,29.48-70.52,37.39-15.4,3.65-29.38,5.78-41.95,6.38ZM261.42,1063.64l.3,72.34c3.44-.81,6.89-1.77,10.33-2.89,3.44-1.11,7.55-2.78,12.31-5.02,4.76-2.23,8.66-5.01,11.7-8.36s4.66-6.94,4.86-10.79c.2-4.05-.36-8-1.67-11.85-1.32-3.85-3.19-7.29-5.62-10.33s-5.02-5.82-7.75-8.36c-2.74-2.53-5.78-4.76-9.12-6.69-3.34-1.92-6.18-3.5-8.51-4.71-2.33-1.22-4.61-2.33-6.84-3.34Z"/>
    <path class="cls-2" d="M489.69,1186.74c0,3.85-.1,6.28-.3,7.29-.2,1.02-.71,1.72-1.52,2.13h-.61c-9.12,3.44-20.67,5.17-34.65,5.17-3.45,0-6.89-.2-10.33-.61-22.29-1.42-40.73-7.19-55.32-17.33-20.06-13.98-30.2-34.35-30.39-61.09v-.3c1.01-22.9,7.09-40.58,18.24-53.04,11.14-12.46,26.44-18.69,45.9-18.69h5.47c22.08.41,38.09,6.38,48.02,17.93,10.94,12.57,14.89,32.12,11.85,58.66,0,.61-.2,1.22-.61,1.82-.41.61-1.12,1.12-2.13,1.52-1.02.41-4.31.76-9.88,1.06-5.58.3-14.03.26-25.38-.15-9.73-.2-20.27-.61-31.61-1.22-1.62,7.7,2.53,13.78,12.46,18.24,4.46,2.03,11.7,2.99,21.73,2.89,10.03-.1,17.58-.46,22.64-1.06,5.06-.61,9.12-1.22,12.16-1.82l2.74-.3.3,2.74c.4,8.51.71,15.71.91,21.58.2,6.28.3,11.15.3,14.59ZM422.82,1096.16c-1.42,1.82-2.03,4.16-1.82,6.99l21.58-2.13c-.2-2.23-.91-3.95-2.13-5.17-1.62-2.02-4.06-3.14-7.29-3.34h-2.13c-3.85.2-6.59,1.42-8.21,3.65Z"/>
    <path class="cls-2" d="M627.98,1195.85v2.43l-47.42,1.52v-2.43c-.2-13.37-1.22-27.96-3.04-43.77-3.65-29.18-8.71-45.69-15.2-49.54-1.62-.81-3.24-.81-4.86,0-3.45,2.23-5.17,11.65-5.17,28.27-.2,9.93.5,24.92,2.13,44.98.61,6.49.91,10.84.91,13.07.2,4.46-.41,6.99-1.82,7.6l-.3.3-48.33.61,1.52-144.07h34.65l7.29,20.97c5.06-10.74,11.65-18.03,19.76-21.88,7.7-3.85,16.11-4.15,25.23-.91,14.39,5.27,24.52,30.9,30.4,76.9,2.84,22.29,4.26,44.28,4.26,65.96Z"/>
    <path class="cls-2" d="M761.11,1141.75l-30.09,58.05-37.39-44.38,2.74,42.55-53.19.3-1.22-216.72,55.32-.61-2.13,77.81,48.63-29.18,12.46,56.84-60.79,19.45,65.65,35.87Z"/>
    <path class="cls-2" d="M778.43,1050.57l45.9,2.43,3.04,143.16-58.36,2.74,9.42-148.33ZM809.13,985.83c8.1,1.82,14.23,5.98,18.39,12.46,4.15,6.49,5.72,13.17,4.71,20.06-1.02,5.07-3.5,9.32-7.45,12.77-3.95,3.45-9.48,5.17-16.57,5.17h-4.26c-8.71-1.22-15-4.35-18.84-9.42-3.85-5.06-5.47-10.53-4.86-16.41.81-6.89,3.85-12.87,9.12-17.93,5.27-5.06,11.75-7.39,19.45-6.99l.3.3Z"/>
    <path class="cls-3" d="M850.47,1050.57l45.9,2.43,3.04,143.16-58.36,2.74,9.42-148.33ZM881.17,985.83c8.1,1.82,14.23,5.98,18.39,12.46,4.15,6.49,5.72,13.17,4.71,20.06-1.02,5.07-3.5,9.32-7.45,12.77-3.95,3.45-9.48,5.17-16.57,5.17h-4.26c-8.71-1.22-15-4.35-18.84-9.42-3.85-5.06-5.47-10.53-4.86-16.41.81-6.89,3.85-12.87,9.12-17.93,5.27-5.06,11.75-7.39,19.45-6.99l.3.3Z"/>
    <path class="cls-3" d="M1028.89,1130.2c13.17,9.53,18.74,20.97,16.72,34.35-2.43,11.15-8.62,19.76-18.54,25.84-10.33,6.28-23.81,9.42-40.43,9.42-10.74,0-21.18-1.22-31.31-3.65-8.31-2.23-15.5-4.81-21.58-7.75-6.08-2.94-10.54-5.62-13.37-8.05-2.84-2.43-5.02-5.02-6.54-7.75s-2.33-4.66-2.43-5.78c-.1-1.11-.15-1.98-.15-2.58v-1.82l1.82-.61c6.08-2.84,12.16-5.57,18.24-8.21,5.47-2.23,9.83-3.85,13.07-4.86,5.67-2.02,9.01-2.02,10.03,0,1.42,3.04,5.52,6.23,12.31,9.57,6.79,3.34,12.51,4.61,17.17,3.8,2.83-.4,4.41-1.82,4.71-4.26.3-2.43-1.17-4.61-4.41-6.53-3.24-1.92-8.92-4.41-17.02-7.45-6.69-2.43-11.96-4.46-15.81-6.08-3.85-1.62-8.77-4.25-14.74-7.9-5.98-3.65-11.09-7.7-15.35-12.16-9.53-9.73-11.85-20.16-6.99-31.31,4.45-10.13,13.63-18.49,27.51-25.08,13.88-6.58,28.31-9.57,43.31-8.97,23.1,1.02,39.41,9.63,48.94,25.84,4.86,7.9,7.39,15.81,7.6,23.71v3.34l-57.75-.3.3-3.34c.81-5.88.3-9.73-1.52-11.55-1.22-1.62-3.75-2.33-7.6-2.13-4.86,0-8.21,1.02-10.03,3.04-1.02,1.22-1.52,2.94-1.52,5.17.2,1.22,1.01,2.48,2.43,3.8,1.42,1.32,3.69,2.74,6.84,4.26,3.14,1.52,5.82,2.74,8.05,3.65,2.23.91,5.57,2.18,10.03,3.8,18.24,7.1,30.9,13.27,37.99,18.54Z"/>
    <path class="cls-3" d="M1168.4,1053c4.46,2.23,8.31,5.77,11.55,10.64,3.24,4.86,5.77,10.08,7.6,15.65,1.82,5.58,3.29,12.51,4.41,20.82,1.11,8.31,1.82,15.61,2.13,21.88.3,6.28.35,13.98.15,23.1-.2,9.12-.41,15.91-.61,20.37-.2,4.46-.61,10.23-1.22,17.33-.41,7.29-.61,11.65-.61,13.07l.3,2.74-48.94-2.74v-2.43c.2-7.7.25-16.97.15-27.81-.1-10.84-1.22-21.73-3.34-32.67-2.13-10.94-5.22-17.63-9.27-20.06-2.23-1.42-4.97-1.32-8.21.3-3.85,1.82-6.59,11.75-8.21,29.79-.81,10.33-1.22,24.62-1.22,42.86,0,5.47-.1,8.51-.3,9.12l-.3,1.52-54.1,4.25,3.34-215.8,54.41-1.52.61-.61,1.82.61c1.22.61,1.72,2.54,1.52,5.77-.2,1.82-.41,4.46-.61,7.9-.61,7.09-1.32,15.8-2.13,26.14-1.82,20.26-3.34,36.37-4.56,48.33,23.3-19.04,41.84-25.23,55.62-18.54Z"/>
    <path class="cls-3" d="M1216.73,1050.57l45.9,2.43,3.04,143.16-58.36,2.74,9.42-148.33ZM1247.43,985.83c8.1,1.82,14.23,5.98,18.39,12.46,4.15,6.49,5.72,13.17,4.71,20.06-1.02,5.07-3.5,9.32-7.45,12.77-3.95,3.45-9.48,5.17-16.57,5.17h-4.26c-8.71-1.22-15-4.35-18.84-9.42-3.85-5.06-5.47-10.53-4.86-16.41.81-6.89,3.85-12.87,9.12-17.93,5.27-5.06,11.75-7.39,19.45-6.99l.3.3Z"/>
  </g>
</svg>
